<svg xmlns="http://www.w3.org/2000/svg" width="100" height="100" viewBox="0 0 100 100" fill="none">
<rect width="100" height="100" rx="2" fill="#D9D9D9"/>
<path fill-rule="evenodd" clip-rule="evenodd" d="M61.3847 36.6154H38.6155C37.5109 36.6154 36.6155 37.5108 36.6155 38.6154V51.4232C36.6155 52.7114 37.8155 53.6636 39.0699 53.3709L45.5779 51.8524C46.4718 51.6438 47.3867 51.5385 48.3046 51.5385H51.6956C52.6135 51.5385 53.5284 51.6438 54.4223 51.8524L60.9302 53.3709C62.1847 53.6636 63.3847 52.7114 63.3847 51.4232V38.6154C63.3847 37.5108 62.4893 36.6154 61.3847 36.6154ZM38.6155 34.6154C36.4063 34.6154 34.6155 36.4062 34.6155 38.6154V61.3846C34.6155 62.2575 34.8951 63.0651 35.3696 63.7227C35.3793 63.7361 35.3845 63.7521 35.3845 63.7686V63.7938C35.3845 63.8227 35.4079 63.8462 35.4368 63.8462C35.4529 63.8462 35.4681 63.8536 35.4781 63.8662C35.6706 64.1092 35.8908 64.3294 36.1338 64.5219C36.1464 64.5319 36.1538 64.547 36.1538 64.5631C36.1538 64.592 36.1772 64.6154 36.2061 64.6154H36.2313C36.2477 64.6154 36.2637 64.6206 36.2771 64.6303C36.9347 65.1049 37.7424 65.3846 38.6155 65.3846H61.3847C62.2578 65.3846 63.0655 65.1049 63.7232 64.6302C63.7365 64.6206 63.7524 64.6154 63.7688 64.6154H63.794C63.8228 64.6154 63.8461 64.5921 63.8461 64.5633C63.8461 64.5472 63.8535 64.5321 63.8661 64.5221C64.1093 64.3295 64.3295 64.1093 64.5221 63.8661C64.5321 63.8535 64.5472 63.8462 64.5632 63.8462C64.592 63.8462 64.6153 63.8228 64.6153 63.7941V63.769C64.6153 63.7526 64.6205 63.7366 64.6301 63.7234C65.1049 63.0656 65.3847 62.2578 65.3847 61.3846V38.6154C65.3847 36.4062 63.5938 34.6154 61.3847 34.6154H38.6155ZM43.0069 45.8042C44.5518 45.8042 45.8041 44.5519 45.8041 43.007C45.8041 41.4621 44.5518 40.2098 43.0069 40.2098C41.4621 40.2098 40.2097 41.4621 40.2097 43.007C40.2097 44.5519 41.4621 45.8042 43.0069 45.8042Z" fill="#CDCDCD"/>
<path fill-rule="evenodd" clip-rule="evenodd" d="M61.3845 36.6154H38.6152C37.5107 36.6154 36.6152 37.5108 36.6152 38.6154V51.4232C36.6152 52.7114 37.8152 53.6636 39.0697 53.3709L45.5776 51.8524C46.4715 51.6438 47.3864 51.5385 48.3044 51.5385H51.6953C52.6133 51.5385 53.5282 51.6438 54.4221 51.8524L60.93 53.3709C62.1845 53.6636 63.3845 52.7114 63.3845 51.4232V38.6154C63.3845 37.5108 62.489 36.6154 61.3845 36.6154ZM38.6152 34.6154C36.4061 34.6154 34.6152 36.4062 34.6152 38.6154V61.3846C34.6152 62.2579 34.8951 63.0658 35.37 63.7235C35.3795 63.7368 35.3848 63.7527 35.3848 63.7691V63.7942C35.3848 63.8229 35.408 63.8462 35.4368 63.8462C35.4528 63.8462 35.4678 63.8535 35.4778 63.8661C35.6704 64.1093 35.8906 64.3295 36.1338 64.5221C36.1464 64.5321 36.1538 64.5472 36.1538 64.5633C36.1538 64.592 36.1771 64.6154 36.2059 64.6154H36.2311C36.2475 64.6154 36.2635 64.6206 36.2768 64.6302C36.9345 65.1049 37.7422 65.3846 38.6152 65.3846H61.3845C62.2575 65.3846 63.0652 65.1049 63.7229 64.6303C63.7362 64.6206 63.7522 64.6154 63.7687 64.6154H63.7939C63.8227 64.6154 63.8461 64.592 63.8461 64.5631C63.8461 64.5471 63.8535 64.5319 63.8661 64.5219C64.1092 64.3294 64.3293 64.1093 64.5218 63.8662C64.5318 63.8536 64.547 63.8462 64.5631 63.8462C64.5921 63.8462 64.6155 63.8227 64.6155 63.7938V63.7685C64.6155 63.752 64.6208 63.7359 64.6304 63.7226C65.1049 63.065 65.3845 62.2574 65.3845 61.3846V38.6154C65.3845 36.4062 63.5936 34.6154 61.3845 34.6154H38.6152ZM43.0072 45.8042C44.552 45.8042 45.8044 44.5519 45.8044 43.007C45.8044 41.4621 44.552 40.2098 43.0072 40.2098C41.4623 40.2098 40.21 41.4621 40.21 43.007C40.21 44.5519 41.4623 45.8042 43.0072 45.8042Z" fill="#CDCDCD"/>
<rect width="100" height="100" rx="2" fill="black" fill-opacity="0.5"/>
<path d="M60.8874 41.8873L45.526 56.764L42.7829 54.0695L58.1051 39.2308L60.8874 41.8873ZM40.1182 59.2308L44.1936 58.0543L41.333 55.3978L40.1182 59.2308Z" fill="white"/>
</svg>